<svg width="100" height="100" viewBox="0 0 100 100" fill="none" xmlns="http://www.w3.org/2000/svg">
<path d="M53.7138 5.534H4.20099V86.6668H53.7138V5.534Z" fill="white"/>
<path d="M83.5122 25.3558H39.7338V86.4188H83.5122V25.3558Z" fill="white"/>
<path fill-rule="evenodd" clip-rule="evenodd" d="M9.28739 5.664C6.56419 5.664 4.35319 7.912 4.35319 10.6932V81.1038C4.35319 83.8802 6.56419 86.133 9.28739 86.133H43.8204H48.7538C51.4764 86.133 53.6874 83.8802 53.6874 81.1038V10.6932C53.6874 7.912 51.4764 5.664 48.7538 5.664H9.28739ZM8.23979 92.9426L40.7768 92.6802L52.0552 91.7842C52.0552 91.7842 104.043 91.6548 91.7054 90.3026C99.8794 90.3026 96.8376 89.8912 94.7654 79.7414L87.244 32.2918C87.244 23.9584 87.0908 24.3382 78.9168 24.3382L58.7198 24.1586L58.259 11.41C58.259 3.077 58.3096 3.5276 50.1348 3.5276L9.84979 3.6236C1.67479 3.6236 2.72459 7.0672 2.72459 15.4002L2.51939 82.239C2.51939 90.5724 0.0643904 92.9426 8.23979 92.9426ZM78.3546 86.133H62.71C63.258 84.5582 63.554 82.8638 63.554 81.1038V25.781H78.3546C81.0774 25.781 83.2874 28.0292 83.2874 30.8102V81.1038C83.2874 83.8802 81.0774 86.133 78.3546 86.133ZM19.1538 55.9578H9.28739V66.016H19.1538V55.9578ZM24.0866 55.9578H33.9542V66.016H24.0866V55.9578ZM48.7538 55.9578H38.8872V66.016H48.7538V55.9578ZM68.487 55.9578H78.3546V66.016H68.487V55.9578ZM78.3546 35.8394H68.487V45.8994H78.3546V35.8394ZM9.28739 35.8394H19.1538V45.8994H9.28739V35.8394ZM33.9542 35.8394H24.0866V45.8994H33.9542V35.8394ZM38.8872 35.8394H48.7538V45.8994H38.8872V35.8394ZM19.1538 15.7226H9.28739V25.781H19.1538V15.7226ZM24.0866 15.7226H33.9542V25.781H24.0866V15.7226ZM48.7538 15.7226H38.8872V25.781H48.7538V15.7226Z" fill="black"/>
</svg>
