<svg width="100" height="100" viewBox="0 0 100 100" fill="none" xmlns="http://www.w3.org/2000/svg">
<g clip-path="url(#clip0_4_43)">
<path d="M47.769 50C60.5483 50 70.908 39.1569 70.908 25.7812C70.908 12.4056 60.5483 1.5625 47.769 1.5625C34.9897 1.5625 24.63 12.4056 24.63 25.7812C24.63 39.1569 34.9897 50 47.769 50Z" fill="white"/>
<path d="M47.769 51.5625C34.1842 51.5625 24.3374 40.1711 24.3374 25.9523C24.3374 11.7336 34.0125 1.37188 47.5973 1.37188C61.1822 1.37188 71.5432 11.3914 71.5432 25.6102C71.5432 39.8289 61.3538 51.5625 47.769 51.5625ZM47.769 3.125C35.8263 3.125 26.1229 13.2812 26.1229 25.7812C26.1229 38.2812 35.8263 49.2945 47.769 49.2945C59.7117 49.2945 69.4151 38.2812 69.4151 25.7812C69.4151 13.2812 59.7117 3.125 47.769 3.125Z" fill="#0D0D0D"/>
<path d="M91.6281 90.4461C91.6281 67.7391 73.2969 49.7656 47.7687 49.7656C22.2414 49.7656 1.49139 68.2227 1.49139 90.9297L91.6281 90.4461Z" fill="white"/>
<path d="M94.2492 95.0055L1.08827 96.0227C0.267181 96.0227 -0.0414126 91.5164 -0.0398501 90.7883C-0.00781881 73.6492 11.5883 58.8266 28.1719 52.2094C34.1477 49.8273 40.868 48.4375 47.8094 48.4375C52.7359 48.4375 57.5117 49.0992 61.9883 50.3563C81.3852 55.7164 100.064 75.668 100.029 94.6594C100.027 95.3875 95.0703 95.0055 94.2492 95.0055ZM1.23359 90.1516L48.0766 90.4937L91.3508 90.5453C90.9266 77.707 86.0977 65.0352 75.0633 58.0867C70.4945 55.2094 65.1234 52.2008 59.5273 51.0094C56.0953 50.282 51.5586 49.8844 47.9758 49.8844C43.5719 49.8844 39.3164 50.4805 35.2836 51.4727C31.5492 52.4656 27.3539 53.6836 24.1414 55.4039C11.5891 62.1539 1.78202 76.3203 1.23359 90.1516Z" fill="#0D0D0D"/>
</g>
<defs>
<clipPath id="clip0_4_43">
<rect width="100" height="100" fill="white"/>
</clipPath>
</defs>
</svg>
