<?xml version="1.0" encoding="utf-8"?>
<svg fill="#000000" width="800px" height="800px" viewBox="0 0 846.66 846.66" style="shape-rendering:geometricPrecision; text-rendering:geometricPrecision; image-rendering:optimizeQuality; fill-rule:evenodd; clip-rule:evenodd" version="1.1" xmlns="http://www.w3.org/2000/svg">
  <defs>
    <style type="text/css">
   
    .fil0 {fill:black;fill-rule:nonzero}
   
  </style>
  </defs>
  <rect x="68.57" y="30.008" width="529.78" height="692.265" style="stroke: rgb(255, 255, 255); fill: rgb(255, 255, 255);" transform="matrix(1, -0.000299, 0, 1, 90.23555, 81.945663)"/>
  <g id="Layer_x0020_1">
    <path class="fil0" d="M 305.08 127 C 277.92 127 274.682 93.804 301.842 93.804 L 382.098 95.422 L 377.241 32.399 C 377.241 20.999 392.967 18.234 404.367 18.234 L 570.405 21.471 C 581.805 21.471 579.724 19.38 579.724 30.78 L 581.342 101.898 L 697.155 100.279 C 708.555 100.279 708.092 99.816 708.092 111.216 L 785.795 780.266 C 785.795 791.666 804.063 841.376 792.663 841.376 L 149.505 844.614 C 138.105 844.614 143.424 807.855 143.424 796.455 L 138.568 111.216 C 138.568 99.816 138.105 98.66 149.505 98.66 L 215.766 101.898 C 242.916 101.898 238.06 127 210.91 127 L 163.67 127 L 163.67 795.23 L 682.99 795.23 L 682.99 127 C 557.02 127 431.05 127 305.08 127 Z M 403.962 97.041 L 557.859 97.041 L 556.24 51.43 L 407.2 51.43 L 403.962 97.041 Z M 215.28 566.42 C 188.13 566.42 188.13 525.13 215.28 525.13 L 403.74 525.13 C 430.9 525.13 430.9 566.42 403.74 566.42 L 215.28 566.42 Z M 215.28 723.15 C 188.13 723.15 188.13 681.86 215.28 681.86 L 403.74 681.86 C 430.9 681.86 430.9 723.15 403.74 723.15 L 215.28 723.15 Z M 215.28 644.79 C 188.13 644.79 188.13 603.5 215.28 603.5 L 403.74 603.5 C 430.9 603.5 430.9 644.79 403.74 644.79 L 215.28 644.79 Z M 510.09 542.85 L 631.38 542.85 C 642.78 542.85 652.02 552.1 652.02 563.5 L 652.02 684.78 C 652.02 696.18 642.78 705.43 631.38 705.43 L 510.09 705.43 C 498.69 705.43 489.45 696.18 489.45 684.78 L 489.45 563.5 C 489.45 552.1 498.69 542.85 510.09 542.85 Z M 610.73 584.14 L 530.74 584.14 L 530.74 664.14 L 610.73 664.14 L 610.73 584.14 Z M 367.45 332.05 C 381.07 332.28 392.07 320.89 392.07 307.43 C 392.07 293.71 381.17 282.8 367.45 282.8 C 353.76 282.8 342.83 293.74 342.83 307.43 C 342.83 320.91 353.81 332.28 367.45 332.05 Z M 388.1 370.03 L 388.1 429.77 C 435.91 420.04 470.41 377.82 470.41 328.89 C 470.41 272.02 424.32 225.93 367.45 225.93 C 310.59 225.93 264.5 272.02 264.5 328.89 C 264.5 377.82 298.99 420.04 346.81 429.77 L 346.81 370.02 C 320.03 361.13 301.53 335.94 301.53 307.43 C 301.53 271.13 331.15 241.51 367.45 241.51 C 403.74 241.51 433.37 271.14 433.37 307.43 C 433.37 335.92 414.88 361.16 388.1 370.03 Z M 367.45 184.64 C 447.12 184.64 511.7 249.22 511.7 328.89 C 511.7 408.55 447.12 473.13 367.45 473.13 C 287.79 473.13 223.21 408.55 223.21 328.89 C 223.21 249.22 287.79 184.64 367.45 184.64 Z"/>
  </g>
</svg>