<svg width="100" height="100" viewBox="0 0 100 100" fill="none" xmlns="http://www.w3.org/2000/svg">
<path d="M83.5109 4.90098H4.59648V96.69H83.5109V4.90098Z" fill="white"/>
<path d="M73.1893 13.4473H14.9182V88.1437H73.1893V13.4473Z" fill="#ECF0F1"/>
<path d="M62.7617 1.69609H25.3455V13.4473H62.7617V1.69609Z" fill="white"/>
<path d="M54.5399 20.8341L57.5734 25.5159L63.8886 26.4579L59.448 30.2934L60.3177 35.5574L54.5399 33.2462L48.7621 35.5574L49.6315 30.2934L45.1913 26.4579L51.5067 25.5159L54.5399 20.8341Z" fill="white"/>
<path d="M54.5399 43.0355L57.5734 47.7173L63.8886 48.6594L59.448 52.4949L60.3177 57.7591L54.5399 55.4474L48.7621 57.7591L49.6315 52.4949L45.1913 48.6594L51.5067 47.7173L54.5399 43.0355Z" fill="white"/>
<path d="M54.5399 65.237L57.5734 69.9187L63.8886 70.8608L59.448 74.6961L60.3177 79.9603L54.5399 77.6489L48.7621 79.9603L49.6315 74.6961L45.1913 70.8608L51.5067 69.9187L54.5399 65.237Z" fill="white"/>
<path d="M46.9062 31.0267L46.2054 35.268C46.0766 36.0479 46.4763 36.8234 47.2453 37.2862C47.6944 37.5563 48.2266 37.6944 48.7624 37.6944C49.1443 37.6944 49.5285 37.624 49.8849 37.4815L54.5399 35.6193L59.1949 37.4815C60.051 37.8241 61.0647 37.749 61.8343 37.2862C62.6033 36.8234 63.003 36.0481 62.8742 35.2683L62.1736 31.0271L65.751 27.9368C66.409 27.3686 66.6364 26.5467 66.3425 25.7981C66.0487 25.0496 65.2816 24.4953 64.3459 24.3557L59.2579 23.5968L56.8136 19.8245C56.3642 19.1309 55.4906 18.6981 54.5397 18.6981C53.5888 18.6981 52.7154 19.131 52.2658 19.8245L49.8214 23.5968L44.7335 24.3557C43.798 24.4953 43.0307 25.0496 42.7371 25.7981C42.4432 26.5467 42.6706 27.3688 43.3285 27.9368L46.9062 31.0267ZM51.9637 27.6187C52.7388 27.5029 53.408 27.1006 53.7801 26.526L54.5397 25.3536L55.2993 26.526C55.6713 27.1004 56.3406 27.5029 57.1156 27.6187L58.6969 27.8546L57.5849 28.8151C57.04 29.286 56.7841 29.9371 56.8911 30.5831L57.1088 31.9011L55.6622 31.3223C55.3077 31.1804 54.9237 31.1095 54.5394 31.1095C54.1552 31.1095 53.7712 31.1804 53.4167 31.3223L51.9701 31.9009L52.1881 30.5831C52.2946 29.9371 52.0391 29.2858 51.4942 28.8151L50.3822 27.8544L51.9637 27.6187Z" fill="#0D0D0D"/>
<path d="M24.2198 26.0591H36.2189C37.6437 26.0591 38.7993 25.1025 38.7993 23.9226C38.7993 22.7426 37.6437 21.786 36.2189 21.786H24.2198C22.795 21.786 21.6394 22.7426 21.6394 23.9226C21.6394 25.1027 22.795 26.0591 24.2198 26.0591Z" fill="#0D0D0D"/>
<path d="M24.2198 34.6055H36.2189C37.6437 34.6055 38.7993 33.6489 38.7993 32.4689C38.7993 31.289 37.6437 30.3324 36.2189 30.3324H24.2198C22.795 30.3324 21.6394 31.289 21.6394 32.4689C21.6394 33.6489 22.795 34.6055 24.2198 34.6055Z" fill="#0D0D0D"/>
<path d="M46.9062 53.2279L46.2054 57.4692C46.0766 58.249 46.4763 59.0247 47.2453 59.4873C48.0145 59.9503 49.0284 60.0251 49.8847 59.6825L54.5397 57.8203L59.1947 59.6825C59.5513 59.825 59.9349 59.8954 60.3172 59.8954C60.853 59.8954 61.3854 59.7574 61.8343 59.4873C62.6033 59.0245 63.003 58.2492 62.8742 57.4692L62.1736 53.2279L65.751 50.1377C66.409 49.5694 66.6364 48.7476 66.3425 47.999C66.0487 47.2504 65.2816 46.6961 64.3459 46.5565L59.2579 45.7977L56.8136 42.0254C56.3642 41.3317 55.4906 40.899 54.5397 40.899C53.5888 40.899 52.7154 41.3319 52.2658 42.0254L49.8214 45.7977L44.7335 46.5565C43.798 46.6961 43.0307 47.2504 42.7371 47.999C42.4432 48.7476 42.6706 49.5696 43.3285 50.1377L46.9062 53.2279ZM51.9637 49.8201C52.7388 49.7044 53.408 49.3021 53.7801 48.7274L54.5397 47.555L55.2993 48.7274C55.6713 49.3019 56.3406 49.7044 57.1156 49.8201L58.6969 50.0561L57.5849 51.0165C57.04 51.4875 56.7841 52.1385 56.8911 52.7845L57.1088 54.1027L55.6622 53.524C55.3077 53.382 54.9237 53.3111 54.5394 53.3111C54.1552 53.3111 53.7712 53.382 53.4167 53.524L51.9701 54.1025L52.1881 52.7845C52.2946 52.1385 52.0391 51.4873 51.4942 51.0165L50.3822 50.0559L51.9637 49.8201Z" fill="#0D0D0D"/>
<path d="M24.2198 48.2607H36.2189C37.6437 48.2607 38.7993 47.3041 38.7993 46.1242C38.7993 44.9443 37.6437 43.9877 36.2189 43.9877H24.2198C22.795 43.9877 21.6394 44.9443 21.6394 46.1242C21.6394 47.3041 22.795 48.2607 24.2198 48.2607Z" fill="#0D0D0D"/>
<path d="M24.2198 56.8069H36.2189C37.6437 56.8069 38.7993 55.8503 38.7993 54.6704C38.7993 53.4904 37.6437 52.5338 36.2189 52.5338H24.2198C22.795 52.5338 21.6394 53.4904 21.6394 54.6704C21.6394 55.8503 22.795 56.8069 24.2198 56.8069Z" fill="#0D0D0D"/>
<path d="M46.9062 75.4297L46.2054 79.6708C46.0766 80.4506 46.4763 81.2263 47.2453 81.6889C47.6944 81.9592 48.2266 82.097 48.7624 82.097C49.1443 82.097 49.5285 82.0267 49.8849 81.8841L54.5399 80.0219L59.1949 81.8841C60.051 82.2267 61.0651 82.1515 61.8343 81.6889C62.6035 81.2263 63.003 80.4508 62.8742 79.6708L62.1736 75.4295L65.751 72.3393C66.409 71.7711 66.6364 70.9492 66.3425 70.2006C66.0487 69.4521 65.2818 68.8976 64.3461 68.7582L59.2577 67.9991L56.8133 64.2268C56.364 63.5331 55.4903 63.1004 54.5394 63.1004C53.5885 63.1004 52.7151 63.5333 52.2656 64.2268L49.8212 67.9991L44.7332 68.7582C43.7976 68.8978 43.0305 69.4519 42.7368 70.2006C42.443 70.9492 42.6703 71.7711 43.3283 72.3393L46.9062 75.4297ZM51.964 72.0213C52.739 71.9058 53.408 71.5035 53.7801 70.9286L54.5397 69.7563L55.2993 70.9286C55.6713 71.5031 56.3401 71.9056 57.1154 72.0213L58.6969 72.2573L57.5849 73.2178C57.04 73.6885 56.7841 74.3396 56.8911 74.9858L57.1088 76.3039L55.6622 75.7252C55.3077 75.5833 54.9237 75.5123 54.5394 75.5123C54.1552 75.5123 53.7712 75.5833 53.4167 75.7252L51.9701 76.3039L52.1881 74.9859C52.2946 74.3399 52.0391 73.6887 51.4942 73.218L50.3822 72.2575L51.964 72.0213Z" fill="#0D0D0D"/>
<path d="M24.2198 70.4622H36.2189C37.6437 70.4622 38.7993 69.5056 38.7993 68.3256C38.7993 67.1457 37.6437 66.1891 36.2189 66.1891H24.2198C22.795 66.1891 21.6394 67.1457 21.6394 68.3256C21.6394 69.5056 22.795 70.4622 24.2198 70.4622Z" fill="#0D0D0D"/>
<path d="M24.2198 79.0083H36.2189C37.6437 79.0083 38.7993 78.0517 38.7993 76.8718C38.7993 75.6919 37.6437 74.7353 36.2189 74.7353H24.2198C22.795 74.7353 21.6394 75.6919 21.6394 76.8718C21.6394 78.0519 22.795 79.0083 24.2198 79.0083Z" fill="#0D0D0D"/>
<path d="M82.4838 4.37939L64.9022 4.81969V2.28337C64.9022 1.10343 64.0403 1.76164 62.6155 1.76164L25.1995 1.46811C23.7747 1.46811 22.766 0.516168 22.766 1.69611V4.96646L4.89052 4.52616C3.46568 4.52616 4.51236 9.59338 4.51236 10.7733V96.5422C4.36554 97.2816 4.93384 97.9447 6.35868 97.9447C6.94641 96.4757 90.209 100.511 91.4391 99.119C92.8639 99.119 92.8452 97.2816 92.8452 96.1017L83.4492 7.24977C83.4492 6.06982 83.9089 4.37939 82.4838 4.37939ZM70.6095 15.5838V86.006H17.4989V15.5838H70.6095ZM27.9267 3.83266H60.1819V11.3106H27.9267V3.83266ZM80.9311 94.5524H7.17728V7.03747H22.766V11.4573L14.9187 11.3106C13.4939 11.3106 12.3383 12.2672 12.3383 13.4471V88.1426C12.3383 89.3225 13.4939 90.2791 14.9187 90.2791H73.1899C74.6148 90.2791 75.7703 89.3225 75.7703 88.1426V13.4473C75.7703 12.2674 74.6148 11.3108 73.1899 11.3108H65.3429V7.03747H80.9313L80.9311 94.5524Z" fill="#0D0D0D"/>
</svg>
