<svg width="100" height="100" viewBox="0 0 100 100" fill="none" xmlns="http://www.w3.org/2000/svg">
<g clip-path="url(#clip0_8_146)">
<path d="M50.2423 92.3953C73.7831 92.3953 92.8667 73.0411 92.8667 49.1666C92.8667 25.292 73.7831 5.93787 50.2423 5.93787C26.7014 5.93787 7.6178 25.292 7.6178 49.1666C7.6178 73.0411 26.7014 92.3953 50.2423 92.3953Z" fill="white" stroke="white" stroke-width="8.70976"/>
<path fill-rule="evenodd" clip-rule="evenodd" d="M99.9652 46.9173C100.083 54.3271 98.8873 61.6988 96.4345 68.6917C96.0926 69.7271 95.7584 70.7668 95.4209 71.8022C93.7649 76.4477 91.3806 80.7993 88.3562 84.6937C85.2805 88.9865 81.0694 92.3365 76.1952 94.367C71.2121 96.331 66.0047 97.668 60.6918 98.3473C57.2231 98.8144 53.7229 99.0093 50.2238 98.9309C42.3294 98.8841 34.5277 97.2172 27.304 94.0316C20.8773 91.1835 15.1027 87.0497 10.3374 81.8826C8.96019 80.1929 7.76586 78.3628 6.77404 76.4216C5.88456 74.9202 5.21282 73.2872 4.32224 71.7847C2.79041 68.8833 1.79532 65.7293 1.3827 62.474C0.853582 59.9003 0.57487 57.2808 0.54874 54.6537C0.532409 53.9983 0.451844 53.3473 0.310311 52.7071C-0.167637 50.8976 -0.101225 48.9869 0.501925 47.2145C0.603176 46.901 0.649991 46.5732 0.640193 46.2445C0.86338 40.8379 3.03538 36.0976 5.72016 31.5522C6.52255 30.2533 7.39461 28.998 8.33309 27.7939C9.74298 25.9932 11.0451 24.1108 12.234 22.1576C14.8763 17.6253 18.7761 14.2731 23.0482 11.3488C25.3019 9.80501 27.6785 8.43975 29.9692 6.94712C32.2479 5.4338 34.6877 4.1785 37.243 3.20301C39.0731 2.48337 40.9936 2.01739 42.95 1.81925C47.9429 1.42949 52.9358 0.561776 57.9743 1.42949C59.0576 1.59715 60.1572 1.64614 61.2514 1.57755C64.0962 1.52312 66.9378 1.7855 69.7249 2.35925C72.7733 2.77841 75.6203 4.12189 77.8816 6.20897C80.5609 8.77617 83.5299 11.0418 86.3475 13.4685C89.8608 16.4386 92.8667 19.9617 95.2467 23.8996C96.8656 26.8859 97.9761 30.1216 98.5335 33.4727C99.5558 37.8798 100.036 42.3947 99.9652 46.9173ZM27.6328 33.1384C27.7667 31.66 27.7515 31.6948 26.2556 31.0492C23.6427 29.9235 21.057 28.752 18.4604 27.5958C17.6122 27.2169 17.4446 27.2692 16.7467 27.9409C14.6183 30.151 12.8371 32.6703 11.4632 35.4139C9.79197 38.7356 8.65535 42.2989 8.09466 45.9745C7.99885 46.6233 7.96183 47.2787 7.98578 47.9341C7.89542 48.7452 8.49639 49.4692 9.31076 49.528C12.2851 50.2455 15.3107 50.7322 18.3602 50.9826C20.211 51.0914 22.0618 51.2928 23.9192 51.4278C24.4625 51.4866 25.0123 51.4725 25.5523 51.3876C25.8462 51.2874 26.0803 51.0599 26.1881 50.7681C26.2872 50.3435 26.3274 49.9069 26.3089 49.4714C26.2981 46.4078 26.4853 43.3463 26.8707 40.3066C27.2452 37.9364 27.3868 35.5293 27.6328 33.1384ZM43.1601 52.2727C43.1601 52.2128 43.1601 52.1529 43.1689 52.092C44.8117 52.092 46.4535 52.092 48.0975 52.092C48.6418 52.092 49.1927 52.092 49.7393 52.0593C50.3109 52.0571 50.7605 51.5716 50.7191 51.0011C50.7398 50.0147 50.7017 49.0283 50.6048 48.0474C50.1475 43.8035 49.9102 39.539 49.8917 35.2702C49.8917 35.1613 49.8841 35.0524 49.8732 34.9435C49.8068 34.2794 49.4856 33.8886 48.8933 33.8363C46.607 33.6371 44.3207 33.4248 42.0344 33.2724C39.7361 33.2484 37.4422 33.0448 35.1755 32.6638C34.5277 32.556 33.8701 32.5277 33.2158 32.5788C32.7574 32.5614 32.3688 32.9153 32.3448 33.3736C32.2261 34.4623 32.2054 35.5619 32.0323 36.6398C31.451 41.2026 31.2887 45.809 31.5479 50.4012C31.5718 51.393 31.8745 51.6456 33.0198 51.7131C36.3905 51.9156 39.7742 52.0887 43.1601 52.2727ZM9.20624 54.8345C8.2068 54.7626 7.88998 55.2133 8.31131 56.2596C8.6793 57.1698 9.13656 58.0418 9.51544 58.9476C9.67439 59.333 9.95092 59.8796 9.79741 60.1452C9.41854 61.0652 9.50782 62.1115 10.038 62.953C10.9907 65.3929 11.9302 67.8523 13.0941 70.1887C14.5148 73.0226 16.3657 75.6181 18.5823 77.8837C19.0025 78.4118 19.7276 78.5881 20.3428 78.3094C22.7684 77.3296 25.193 76.3301 27.6546 75.4374C28.8065 75.0171 29.1048 74.6154 28.8522 73.5223C27.7058 68.4141 26.8979 63.2361 26.432 58.0211C26.359 57.246 26.0291 56.9771 25.1342 56.8693C21.6699 56.4523 18.2023 56.0527 14.7402 55.6183C12.9046 55.3886 11.0734 55.099 9.20624 54.8345ZM72.8016 47.1361H72.8767C72.7385 44.9532 72.5382 42.7736 72.4783 40.5896C72.4282 38.0758 72.1756 35.5696 71.7238 33.096C71.5431 32.1434 71.3623 31.9888 70.4315 32.2305C66.425 33.3355 62.2857 33.8853 58.1289 33.8635C57.4757 33.8505 56.8149 33.8799 56.1573 33.8581C54.7517 33.8102 54.5645 34.3491 54.6331 35.3692C54.9303 39.8395 55.2351 44.3098 55.5476 48.7801C55.5857 49.3244 55.6793 49.8688 55.7599 50.4045C55.9178 51.4409 56.1431 51.6902 57.2765 51.6108C61.087 51.3429 64.8975 51.0294 68.708 50.7071C69.7968 50.6168 70.8768 50.46 71.9546 50.2934C72.4097 50.2575 72.7679 49.8895 72.7907 49.4333C72.8278 48.6625 72.8016 47.896 72.8016 47.1318V47.1361ZM51.9679 67.9307C51.712 64.4653 51.4954 61.5246 51.2765 58.5829C51.2689 58.473 51.2526 58.3641 51.2276 58.2563C51.1611 57.811 50.7855 57.4757 50.3348 57.4626C49.1372 57.4223 47.9298 57.4419 46.7279 57.4136C42.9021 57.3265 39.0731 57.3276 35.256 57.1088C31.2093 56.8758 31.329 56.7822 31.8113 60.6526C32.2958 64.548 33.0405 68.4108 33.6719 72.2888C33.7231 73.0019 34.4722 73.4428 35.1199 73.1413C40.2739 71.7107 45.5259 70.6655 50.8345 70.0123C51.6892 69.9034 51.9439 69.5703 51.9657 68.7135C51.9755 68.2812 51.9679 67.8425 51.9679 67.9307ZM90.8961 42.975C90.6142 38.385 89.6202 33.8679 87.9501 29.5838C87.4569 28.2632 86.9191 26.96 86.4019 25.6481C84.8646 25.5871 83.9523 26.8772 82.6687 27.39C81.0487 28.0432 79.5256 28.924 77.9262 29.6328C77.1739 29.8788 76.7243 30.6496 76.88 31.4259C77.1119 33.4879 77.4526 35.5456 77.5506 37.6131C77.7248 41.2157 78.365 44.7899 78.1962 48.4143C78.1538 49.3092 78.5076 49.6445 79.3241 49.663C81.948 49.7262 84.5892 49.9015 86.9321 48.3087C87.507 47.9929 88.1025 47.7164 88.7154 47.4812C91.6441 46.0518 91.459 46.3098 90.9212 43.3016C90.9059 43.1939 90.8972 43.085 90.8961 42.9761V42.975ZM57.7555 27.9387C61.5388 27.9289 65.3058 27.4619 68.977 26.5484C69.9318 26.3514 70.1506 25.9377 69.8479 24.8609C68.3923 19.2311 65.6662 14.0096 61.8785 9.59706C61.1458 8.76201 60.0832 8.2906 58.9716 8.30802C57.222 8.26991 55.4714 8.29495 53.7218 8.32326C53.1415 8.32979 52.6973 8.84476 52.7779 9.4196C52.7779 10.0728 52.7942 10.7337 52.8432 11.3869C52.9706 13.1289 53.1219 14.8708 53.2602 16.6128C53.528 19.9878 53.785 23.3628 54.0615 26.7379C54.0136 27.4423 54.6211 28.0138 55.3211 27.9257C56.3141 27.9649 57.2939 27.9431 57.7555 27.9431V27.9387ZM48.3228 10.284L48.484 10.2775C48.5058 9.9509 48.5547 9.62428 48.5439 9.29766C48.5166 8.55951 48.9412 7.60906 48.2042 7.16595C47.7556 6.89486 46.926 7.34886 46.3283 7.21385C45.2472 7.06143 44.1443 7.21712 43.1471 7.66241C42.3153 7.91934 41.4694 8.12729 40.6125 8.28407C39.4008 8.45391 38.3981 9.31508 38.0475 10.4876C36.4406 14.7772 35.1461 19.1778 34.1739 23.6546C34.0203 24.3993 33.8015 25.1364 33.7144 25.8898C33.7264 26.2022 33.893 26.4875 34.1586 26.6519C34.7552 26.9219 35.3899 27.0961 36.041 27.1657C39.9604 27.4325 43.8831 27.6676 47.8101 27.8712C48.9968 27.9355 49.3854 27.5446 49.2069 26.2828C48.631 22.2665 48.693 18.2197 48.5036 14.1838C48.4927 13.9661 48.4796 13.7484 48.4698 13.5306C48.4208 12.4473 48.3718 11.3651 48.3228 10.2851V10.284ZM49.7382 90.281C50.5841 90.281 51.3495 90.3202 52.1116 90.2723C53.6761 90.1743 54.0136 89.6887 53.7447 88.1917C53.4583 87.0323 53.3016 85.8445 53.2754 84.6501C53.405 82.0089 52.669 79.4635 52.6015 76.8538C52.6124 76.2746 52.116 75.8163 51.54 75.874C47.9592 76.1407 44.3762 76.4031 40.7998 76.7319C39.7198 76.8636 38.6518 77.0748 37.6033 77.3644C36.9729 77.5288 36.36 77.752 35.771 78.0307C35.3497 78.2038 35.1265 78.6665 35.2517 79.1042C35.832 82.0949 36.6899 85.0257 37.8124 87.8586C38.041 88.6076 38.7258 89.1237 39.5086 89.1378C41.3594 89.189 43.1493 89.6702 45.0077 89.7834C46.5983 89.8825 48.1693 90.4857 49.7371 90.2821L49.7382 90.281ZM62.6558 69.3362C65.4626 69.1772 68.3019 69.0237 71.1402 68.8528C71.91 68.8071 72.278 68.4282 72.3542 67.6019C72.5262 65.751 72.7505 63.9002 72.818 62.0494C72.8942 59.9732 72.8332 57.8905 72.8049 55.811C72.7973 55.2275 72.2638 54.7931 71.6911 54.9041C71.2556 54.939 70.8202 54.9858 70.3847 55.0555C66.8267 55.6172 63.2862 56.3619 59.7076 56.706C55.8971 57.0663 56.4011 56.964 56.4795 60.314C56.4142 62.0657 56.5002 63.8197 56.7354 65.5573C57.6064 69.9121 56.4632 69.4625 60.9814 69.3427C61.5258 69.3253 62.0745 69.3373 62.6548 69.3373L62.6558 69.3362ZM91.2391 53.4692H91.2685C91.2685 53.2515 91.275 53.0337 91.2685 52.816C91.2347 51.7915 90.7078 51.4006 89.8053 51.7697C88.6915 52.2172 87.5854 52.6864 86.4825 53.1567C84.1254 54.019 81.6714 54.5917 79.1761 54.8606C78.7253 54.8922 78.365 55.2493 78.3312 55.7C78.2768 56.3532 78.255 57.0065 78.255 57.6597C78.2616 60.2824 78.255 62.9051 78.3062 65.5279C78.3356 66.9279 77.9796 68.3455 78.4641 69.7292C79.7139 70.3825 80.954 71.0477 82.2169 71.6715C82.9039 72.0047 83.6072 72.3008 84.3257 72.5588C84.9637 72.8473 85.7117 72.5294 85.9468 71.8697C86.8712 69.7739 87.826 67.6857 88.6153 65.5377C89.8934 62.0538 89.8782 58.2498 91.2173 54.7713C91.2979 54.3424 91.3044 53.9025 91.238 53.4703L91.2391 53.4692ZM64.4446 75.2436V75.3742C62.694 75.3742 60.9422 75.3579 59.1915 75.3742C58.1268 75.3873 57.7523 75.7074 57.7697 76.6981C57.8285 79.9784 57.8785 83.262 58.0527 86.5358C57.9776 87.63 58.2923 88.7143 58.939 89.5995C59.7914 89.4786 60.6395 89.3316 61.4953 89.2445C62.4751 89.1455 63.455 89.0976 64.4348 89.0268C66.0189 89.0518 67.4136 87.9882 67.8098 86.4541C68.818 83.3371 69.8283 80.2245 70.5447 77.0237C70.9214 75.3405 70.8441 75.2392 69.0325 75.2382L64.4446 75.2436ZM28.8631 25.9736C29.0906 25.6546 29.4586 25.3595 29.5283 25.0057C30.5756 20.4549 31.9779 15.9933 33.722 11.6613C33.7797 11.5023 33.7754 11.1997 33.6817 11.1311C33.5076 11.0287 33.2942 11.0168 33.1091 11.0973C31.2517 12.2176 29.5141 13.5241 27.9213 14.9971C25.623 17.1419 23.8778 19.7744 21.6285 21.9562C21.4805 22.1152 21.3455 22.2883 21.2279 22.4712C20.7837 23.0885 21.0178 23.6557 21.8321 23.9268C23.0678 24.3383 24.2948 24.7771 25.5425 25.1451C26.5768 25.4554 27.6394 25.6775 28.862 25.9779L28.8631 25.9736ZM69.5812 11.6025C69.4897 11.6613 69.4092 11.7353 69.3417 11.8202C69.3166 11.9062 69.3297 11.9988 69.3776 12.0739C71.6117 15.5611 73.4037 19.3139 74.7123 23.2431C74.7537 23.3443 74.8081 23.4401 74.8724 23.5283C75.0781 23.9333 75.5474 24.1282 75.9796 23.9888C78.0471 23.3019 80.022 22.3634 81.8587 21.1919C82.3279 20.861 82.402 20.1947 82.0176 19.769C80.4586 18.2567 78.7994 16.8501 77.0531 15.5578C74.8865 14.1163 72.4957 13.0091 70.1941 11.7701C69.9949 11.6907 69.788 11.6351 69.5757 11.6036L69.5812 11.6025ZM32.0694 87.2511C31.8679 86.3104 31.7253 85.3393 31.4444 84.4106C31.0089 82.9604 30.4711 81.5407 29.9768 80.1069C28.3873 79.7574 27.0841 80.7427 25.6361 81.0508C25.4184 81.0965 25.2093 81.1401 24.9938 81.1836C24.2611 81.3328 23.4423 81.3154 23.07 82.1635C23.4826 82.6632 23.9334 83.1314 24.4157 83.5636C26.5136 85.3132 28.9175 86.6588 31.5065 87.532C31.635 87.5799 31.8451 87.3665 32.0639 87.2522L32.0694 87.2511ZM75.9165 80.2833L75.8827 80.2778C75.8315 80.488 75.7738 80.6981 75.7335 80.9104C75.5572 81.74 75.3438 82.5641 75.2273 83.4046C75.1827 83.7171 76.1037 83.4297 77.6943 82.4063C78.2343 82.0459 78.7395 81.6355 79.2033 81.1804C82.5097 78.0329 81.507 78.2245 78.1059 76.6426C77.4624 76.3715 76.733 76.7558 76.5925 77.4395C76.3313 78.3758 76.1342 79.3306 75.911 80.2789L75.9165 80.2833Z" fill="black"/>
</g>
<defs>
<clipPath id="clip0_8_146">
<rect width="100" height="100" fill="white"/>
</clipPath>
</defs>
</svg>
