<svg id="visual" viewBox="0 0 1920 1080" width="1920" height="1080" xmlns="http://www.w3.org/2000/svg" xmlns:xlink="http://www.w3.org/1999/xlink" version="1.1"><rect x="0" y="0" width="1920" height="1080" fill="#D92323"></rect><defs><linearGradient id="grad1_0" x1="43.8%" y1="0%" x2="100%" y2="100%"><stop offset="14.444444444444446%" stop-color="#d92323" stop-opacity="1"></stop><stop offset="85.55555555555554%" stop-color="#d92323" stop-opacity="1"></stop></linearGradient></defs><defs><linearGradient id="grad2_0" x1="0%" y1="0%" x2="56.3%" y2="100%"><stop offset="14.444444444444446%" stop-color="#d92323" stop-opacity="1"></stop><stop offset="85.55555555555554%" stop-color="#d92323" stop-opacity="1"></stop></linearGradient></defs><g transform="translate(1920, 0)"><path d="M0 918C-157.9 890.9 -315.7 863.8 -456.5 790.7C-597.3 717.6 -720.9 598.4 -795 459C-869.1 319.6 -893.5 159.8 -918 0L0 0Z" fill="#0D0D0D"></path></g><g transform="translate(0, 1080)"><path d="M0 -918C159.5 -893.4 319.1 -868.8 459 -795C598.9 -721.2 719.2 -598.2 792.4 -457.5C865.6 -316.8 891.8 -158.4 918 0L0 0Z" fill="#0D0D0D"></path></g></svg>